HIERARCHY
ROOT Hips
{
  OFFSET 5.84602e-005 68.8428 3.50346
  CHANNELS 6 Xposition Yposition Zposition Zrotation Xrotation Yrotation
  JOINT Spine
  {
    OFFSET 0 8.597 -4.6522
    CHANNELS 3 Zrotation Xrotation Yrotation
    JOINT Spine1
    {
      OFFSET 0 7.8454 0.4098
      CHANNELS 3 Zrotation Xrotation Yrotation
      JOINT Spine2
      {
        OFFSET 0 9.7078 -2.1609
        CHANNELS 3 Zrotation Xrotation Yrotation
        JOINT Neck
        {
          OFFSET 0 21.8761 -0.4549
          CHANNELS 3 Zrotation Xrotation Yrotation
          JOINT Head
          {
            OFFSET 0 12.3537 3.3602
            CHANNELS 3 Zrotation Xrotation Yrotation
            End Site
            {
              OFFSET 0.0001 18.9506 0.5657
            }
          }
        }
        JOINT LeftShoulder
        {
          OFFSET 2.2086 21.1115 7.2329
          CHANNELS 3 Zrotation Xrotation Yrotation
          JOINT LeftArm
          {
            OFFSET 13.1193 3.0282 -4.8998
            CHANNELS 3 Zrotation Xrotation Yrotation
            JOINT LeftForeArm
            {
              OFFSET 27.4081 -0.0973053 -0.2375
              CHANNELS 3 Zrotation Xrotation Yrotation
              JOINT LeftHand
              {
                OFFSET 22.8641 0.0662994 -0.1369
                CHANNELS 3 Zrotation Xrotation Yrotation
                JOINT LeftHandIndex1
                {
                  OFFSET 8.8614 0.775009 2.4612
                  CHANNELS 3 Zrotation Xrotation Yrotation
                  JOINT LeftHandIndex2
                  {
                    OFFSET 3.3146 -0.808304 0.5841
                    CHANNELS 3 Zrotation Xrotation Yrotation
                    JOINT LeftHandIndex3
                    {
                      OFFSET 2.2628 -0.552002 0.3989
                      CHANNELS 3 Zrotation Xrotation Yrotation
                      End Site
                      {
                        OFFSET 1.6102 -0.4807 0.2612
                      }
                    }
                  }
                }
                JOINT LeftHandMiddle1
                {
                  OFFSET 8.9937 0.895004 0.2143
                  CHANNELS 3 Zrotation Xrotation Yrotation
                  JOINT LeftHandMiddle2
                  {
                    OFFSET 4.0984 0.0113983 -0.0242
                    CHANNELS 3 Zrotation Xrotation Yrotation
                    JOINT LeftHandMiddle3
                    {
                      OFFSET 2.2716 0.00689697 -0.0138001
                      CHANNELS 3 Zrotation Xrotation Yrotation
                      End Site
                      {
                        OFFSET 2.0404 -0.1441 0.0027
                      }
                    }
                  }
                }
                JOINT LeftHandRing1
                {
                  OFFSET 8.5234 0.597198 -2.0164
                  CHANNELS 3 Zrotation Xrotation Yrotation
                  JOINT LeftHandRing2
                  {
                    OFFSET 3.7188 -0.188293 -0.2328
                    CHANNELS 3 Zrotation Xrotation Yrotation
                    JOINT LeftHandRing3
                    {
                      OFFSET 2.1191 -0.106598 -0.1332
                      CHANNELS 3 Zrotation Xrotation Yrotation
                      End Site
                      {
                        OFFSET 1.8737 -0.2304 -0.0886
                      }
                    }
                  }
                }
                JOINT LeftHandPinky1
                {
                  OFFSET 7.9094 -0.601089 -3.4825
                  CHANNELS 3 Zrotation Xrotation Yrotation
                  JOINT LeftHandPinky2
                  {
                    OFFSET 2.2874 -0.477005 -0.6314
                    CHANNELS 3 Zrotation Xrotation Yrotation
                    JOINT LeftHandPinky3
                    {
                      OFFSET 1.6774 -0.349396 -0.4633
                      CHANNELS 3 Zrotation Xrotation Yrotation
                      End Site
                      {
                        OFFSET 1.4888 -0.4091 -0.3416
                      }
                    }
                  }
                }
                JOINT LeftHandThumb1
                {
                  OFFSET 1.833 -1.3875 1.3896
                  CHANNELS 3 Zrotation Xrotation Yrotation
                  JOINT LeftHandThumb2
                  {
                    OFFSET 3.4129 -1.121 2.5732
                    CHANNELS 3 Zrotation Xrotation Yrotation
                    JOINT LeftHandThumb3
                    {
                      OFFSET 2.2474 -0.804199 1.6192
                      CHANNELS 3 Zrotation Xrotation Yrotation
                      End Site
                      {
                        OFFSET 1.6527 -0.5689 1.1317
                      }
                    }
                  }
                }
              }
            }
          }
        }
        JOINT RightShoulder
        {
          OFFSET -2.2086 21.1115 7.2329
          CHANNELS 3 Zrotation Xrotation Yrotation
          JOINT RightArm
          {
            OFFSET -13.1216 3.0287 -4.9007
            CHANNELS 3 Zrotation Xrotation Yrotation
            JOINT RightForeArm
            {
              OFFSET -27.4081 -0.0973053 -0.2375
              CHANNELS 3 Zrotation Xrotation Yrotation
              JOINT RightHand
              {
                OFFSET -22.8641 0.0664063 -0.1369
                CHANNELS 3 Zrotation Xrotation Yrotation
                JOINT RightHandIndex1
                {
                  OFFSET -8.8614 0.774994 2.4612
                  CHANNELS 3 Zrotation Xrotation Yrotation
                  JOINT RightHandIndex2
                  {
                    OFFSET -3.3146 -0.808304 0.5841
                    CHANNELS 3 Zrotation Xrotation Yrotation
                    JOINT RightHandIndex3
                    {
                      OFFSET -2.2628 -0.552002 0.3989
                      CHANNELS 3 Zrotation Xrotation Yrotation
                      End Site
                      {
                        OFFSET -1.6102 -0.4807 0.2612
                      }
                    }
                  }
                }
                JOINT RightHandMiddle1
                {
                  OFFSET -8.9937 0.894989 0.2143
                  CHANNELS 3 Zrotation Xrotation Yrotation
                  JOINT RightHandMiddle2
                  {
                    OFFSET -4.0984 0.0113983 -0.0242
                    CHANNELS 3 Zrotation Xrotation Yrotation
                    JOINT RightHandMiddle3
                    {
                      OFFSET -2.2716 0.00691223 -0.0138001
                      CHANNELS 3 Zrotation Xrotation Yrotation
                      End Site
                      {
                        OFFSET -2.0404 -0.1441 0.0027
                      }
                    }
                  }
                }
                JOINT RightHandRing1
                {
                  OFFSET -8.5234 0.597198 -2.0164
                  CHANNELS 3 Zrotation Xrotation Yrotation
                  JOINT RightHandRing2
                  {
                    OFFSET -3.7188 -0.188309 -0.2328
                    CHANNELS 3 Zrotation Xrotation Yrotation
                    JOINT RightHandRing3
                    {
                      OFFSET -2.1191 -0.106598 -0.1332
                      CHANNELS 3 Zrotation Xrotation Yrotation
                      End Site
                      {
                        OFFSET -1.8737 -0.2304 -0.0886
                      }
                    }
                  }
                }
                JOINT RightHandPinky1
                {
                  OFFSET -7.9094 -0.601105 -3.4825
                  CHANNELS 3 Zrotation Xrotation Yrotation
                  JOINT RightHandPinky2
                  {
                    OFFSET -2.2874 -0.477005 -0.6314
                    CHANNELS 3 Zrotation Xrotation Yrotation
                    JOINT RightHandPinky3
                    {
                      OFFSET -1.6774 -0.349396 -0.4633
                      CHANNELS 3 Zrotation Xrotation Yrotation
                      End Site
                      {
                        OFFSET -1.4888 -0.4091 -0.3416
                      }
                    }
                  }
                }
                JOINT RightHandThumb1
                {
                  OFFSET -1.833 -1.38751 1.3896
                  CHANNELS 3 Zrotation Xrotation Yrotation
                  JOINT RightHandThumb2
                  {
                    OFFSET -3.41299 -1.12099 2.5732
                    CHANNELS 3 Zrotation Xrotation Yrotation
                    JOINT RightHandThumb3
                    {
                      OFFSET -2.24741 -0.804108 1.6192
                      CHANNELS 3 Zrotation Xrotation Yrotation
                      End Site
                      {
                        OFFSET -1.6527 -0.5689 1.1317
                      }
                    }
                  }
                }
              }
            }
          }
        }
      }
    }
  }
  JOINT RightUpLeg
  {
    OFFSET -9.1966 3.8861 -0.7581
    CHANNELS 3 Zrotation Xrotation Yrotation
    JOINT RightLeg
    {
      OFFSET -0.7359 -41.0265 0
      CHANNELS 3 Zrotation Xrotation Yrotation
      JOINT RightFoot
      {
        OFFSET 0 -40.2855 0
        CHANNELS 3 Zrotation Xrotation Yrotation
        JOINT RightToeBase
        {
          OFFSET 0 -5.6122 11.7359
          CHANNELS 3 Zrotation Xrotation Yrotation
          End Site
          {
            OFFSET 0 0 7.8731
          }
        }
      }
    }
  }
  JOINT LeftUpLeg
  {
    OFFSET 9.1965 3.8864 -0.7581
    CHANNELS 3 Zrotation Xrotation Yrotation
    JOINT LeftLeg
    {
      OFFSET 0.7359 -41.0268 0
      CHANNELS 3 Zrotation Xrotation Yrotation
      JOINT LeftFoot
      {
        OFFSET 0 -40.2855 0
        CHANNELS 3 Zrotation Xrotation Yrotation
        JOINT LeftToeBase
        {
          OFFSET 0 -5.6122 11.7359
          CHANNELS 3 Zrotation Xrotation Yrotation
          End Site
          {
            OFFSET 0 0 7.8731
          }
        }
      }
    }
  }
}
MOTION
Frames:	4
Frame Time:	0.0333333
5.84602e-005 68.8428 3.50346 0 0 -0 0 0 -0 0 0 -0 0 0 -0 0 0 -0 -0 0 0.00140347 0 0 -0 0 0 -0 0 0 -0 0 0 -0 0 0 -0 0 0 -0 0 0 -0 0 0 -0 -0.0146107 -8.87603e-005 -2.63497e-007 2.99804e-018 -2.42657e-020 -1.42182e-022 0 0 -0 -0.0187562 -0.001176 5.858e-005 5.06224e-018 3.88251e-019 1.21329e-020 0 0 -0 -0.012269 -0.00324817 0.000675346 -1.74678e-018 3.88251e-019 -0 0 0 -0 0 0 -0 0 0 -0 0 0 -0 0 0 -0 0 0 -0 0 0 -0 0 0 -0 0 0 -0 0 0 -0 0 0 -0 0.0149955 -9.10982e-005 2.64101e-007 -9.69331e-018 1.21329e-020 -4.7394e-023 0 0 -0 0.0189956 -0.00119102 -5.96516e-005 -5.41541e-019 0 2.42657e-020 0 0 -0 0.0122698 -0.00324857 -0.000673756 -2.00796e-019 0 -1.94126e-019 0 0 -0 0 0 -0 0 0 -0 3.39842 1.33031 -0.0637918 -5.65207e-008 0.834868 -0.000436188 -3.39935 -2.16518 -0.0642563 -8.89002e-024 -1.18485e-023 -1.48106e-024 -3.39844 1.35642 0.0640283 -3.18788e-007 0.782166 -0.000588827 3.39931 -2.13858 0.0634662 1.1399e-023 0 -0 
1.6299 42.3234 -1.51012 0 40.9966 -0 -1.27927 -1.01651 -1.77605 -2.59002 -1.99262 -3.57518 -2.59003 -1.99263 -3.57518 4.52551e-005 -0.0893454 1.02296e-006 -0.176611 0.389927 0.00140264 -9.36489 -7.85822 -40.2587 -40.1073 -5.2102 26.5681 -21.5997 17.5758 -63.161 36.8285 -29.0426 -13.3012 -1.98785e-016 9.93923e-016 -3.18055e-015 -1.98785e-016 -5.96354e-016 -3.18055e-015 -3.97569e-016 1.19271e-015 -3.18055e-015 -1.98785e-016 9.93923e-016 -3.18055e-015 -0.0145753 -8.86473e-005 -4.41449e-006 5.96354e-016 5.96354e-016 6.36111e-015 -1.98785e-016 9.93923e-016 -3.18055e-015 -0.0187948 -0.00118114 6.33797e-005 5.96354e-016 0 -3.18055e-015 -1.98785e-016 9.93923e-016 -3.18055e-015 -0.0122476 -0.00324168 0.000673189 7.95139e-016 7.95139e-016 3.18055e-015 -1.98785e-016 9.93923e-016 -3.18055e-015 -1.98785e-016 -5.96354e-016 -3.18055e-015 -3.97569e-016 1.19271e-015 -3.18055e-015 47.6255 -4.39818 -14.0615 33.3808 -4.52628 -18.854 36.52 15.9134 9.78543 32.9059 -33.9788 40.5132 -3.23025e-016 1.59028e-015 -1.46914e-015 -5.1075e-006 8.31691e-007 -2.03448e-006 -6.21202e-016 1.59028e-015 1.92262e-015 -3.23025e-016 1.59028e-015 -1.46914e-015 0.0149938 -9.30889e-005 -3.75101e-006 7.95139e-016 0 -2.18663e-015 -3.23025e-016 1.59028e-015 -1.46914e-015 0.0189847 -0.00118792 -6.09833e-005 -3.16813e-015 -3.18055e-015 1.13804e-014 -3.23025e-016 1.59028e-015 -1.46914e-015 0.012292 -0.00325677 -0.000677841 1.86962e-006 -1.736e-007 3.7287e-007 -3.23025e-016 1.59028e-015 -1.46914e-015 -5.1075e-006 8.31691e-007 -2.03448e-006 -6.21202e-016 1.59028e-015 1.92262e-015 -60.4193 -28.2753 -23.5244 -172.569 84.4037 170.497 56.0584 35.8792 -59.1962 -7.24703e-007 -1.42655e-007 -2.29813e-006 60.3756 -28.29 23.4493 173.165 84.4169 -171.085 -56.139 35.8349 59.2327 7.90013e-007 2.15492e-006 2.44172e-006 
1.62973 42.2276 -0.962145 0 40.0552 -0 -1.28055 -0.94868 -1.77131 -2.59032 -1.8571 -3.56408 -2.59032 -1.8571 -3.56408 7.98828e-005 -0.0442084 -3.92146e-005 -0.176053 0.46231 0.00140441 -9.588 -7.44363 -40.2037 -40.114 -5.21342 26.5517 -21.4875 17.263 -62.3628 36.3911 -29.2451 -13.649 -1.65521e-031 9.93923e-016 9.54166e-015 -3.08973e-031 1.39149e-015 1.27222e-014 -3.97569e-016 1.19271e-015 9.54166e-015 -1.65521e-031 9.93923e-016 9.54166e-015 -0.0146313 -8.97035e-005 -4.3677e-006 3.97569e-016 -7.95139e-016 9.54166e-015 -1.65521e-031 9.93923e-016 9.54166e-015 -0.018793 -0.00118769 6.36989e-005 -1.06636e-007 -3.78416e-007 -3.10711e-008 -1.65521e-031 9.93923e-016 9.54166e-015 -0.012305 -0.00325119 0.000677113 -1.0725e-007 -3.78223e-007 -3.11055e-008 -1.65521e-031 9.93923e-016 9.54166e-015 -3.08973e-031 1.39149e-015 1.27222e-014 -3.97569e-016 1.19271e-015 9.54166e-015 47.7773 -4.42871 -13.8263 33.4303 -4.49625 -18.4191 36.5199 15.9134 9.78543 33.6753 -34.5386 39.8382 -2.96755e-007 -1.40417e-006 1.8695e-006 2.96755e-007 1.40417e-006 -1.8695e-006 -2.96755e-007 -1.40417e-006 1.8695e-006 -2.96755e-007 -1.40417e-006 1.8695e-006 0.015003 -8.98347e-005 -2.95559e-006 -1.19271e-015 -3.18055e-015 7.92654e-015 -2.96755e-007 -1.40417e-006 1.8695e-006 0.0189794 -0.00119619 -5.52075e-005 1.98785e-016 0 3.70236e-015 -2.96755e-007 -1.40417e-006 1.8695e-006 0.0122665 -0.00324829 -0.000672542 1.98785e-016 1.59028e-015 2.45996e-015 -2.96755e-007 -1.40417e-006 1.8695e-006 2.96755e-007 1.40417e-006 -1.8695e-006 -2.96755e-007 -1.40417e-006 1.8695e-006 -60.2038 -26.9646 -23.1034 -172.194 85.0738 170.146 55.377 36.2144 -58.853 -1.0952e-006 -4.14086e-006 -1.60266e-006 60.1831 -26.9888 23.0304 172.868 85.0873 -170.812 -55.4605 36.171 58.8926 7.23907e-007 -1.439e-007 2.29834e-006 
1.62955 42.134 -0.413618 0 39.1127 -0 -1.28183 -0.88087 -1.76655 -2.59065 -1.72155 -3.55298 -2.59065 -1.72156 -3.55298 2.54772e-005 0.00102089 2.30785e-006 -0.175495 0.534688 0.00140451 -9.81133 -7.02912 -40.147 -40.1207 -5.21662 26.5353 -21.3709 16.9513 -61.5646 35.9513 -29.4454 -13.9994 1.98785e-016 0 -0 3.97569e-016 -1.98785e-016 -0 3.97569e-016 1.59028e-015 -3.18055e-015 1.98785e-016 0 -0 -0.0146173 -9.09176e-005 2.44482e-006 -1.98626e-031 1.19271e-015 9.54166e-015 1.98785e-016 0 -0 -0.0187674 -0.00117751 6.04175e-005 7.7526e-015 8.15017e-015 3.18055e-015 1.98785e-016 0 -0 -0.0122879 -0.00325921 0.000677135 -1.1797e-007 -3.91183e-007 -4.45667e-008 1.98785e-016 0 -0 3.97569e-016 -1.98785e-016 -0 3.97569e-016 1.59028e-015 -3.18055e-015 47.9293 -4.45857 -13.5911 33.4796 -4.46584 -17.9842 36.5199 15.9135 9.78544 34.4438 -35.1072 39.1662 3.97569e-016 -3.18055e-015 2.03754e-015 7.95139e-016 -1.59028e-015 2.13694e-015 3.97569e-016 1.59028e-015 2.18663e-015 3.97569e-016 -3.18055e-015 2.03754e-015 0.0149622 -9.28285e-005 1.99708e-007 1.65521e-032 -3.18055e-015 2.98177e-016 3.97569e-016 -3.18055e-015 2.03754e-015 0.0189951 -0.00119476 -5.56594e-005 -1.59028e-015 1.59028e-015 3.13086e-015 3.97569e-016 -3.18055e-015 2.03754e-015 0.0122856 -0.00324917 -0.000674919 -1.19271e-015 1.59028e-015 2.28602e-015 3.97569e-016 -3.18055e-015 2.03754e-015 7.95139e-016 -1.59028e-015 2.13694e-015 3.97569e-016 1.59028e-015 2.18663e-015 -59.9997 -25.6514 -22.6916 -171.701 85.7438 169.678 54.6901 36.5461 -58.5034 5.96354e-016 6.36111e-015 3.97569e-016 60.0023 -25.6841 22.6205 172.477 85.7579 -170.446 -54.7765 36.5036 58.546 4.45435e-007 -1.70225e-006 -5.51273e-007 
